<svg xmlns="http://www.w3.org/2000/svg" xmlns:xlink="http://www.w3.org/1999/xlink" id="Capa_1" x="0px" y="0px" viewBox="0 0 2000 750" style="" xml:space="preserve"><style type="text/css">	.st0{fill:none;stroke:#32E59E;stroke-width:20.2041;stroke-linecap:round;stroke-linejoin:round;}	.st1{fill:none;stroke:#000000;stroke-width:16.3552;stroke-linecap:round;stroke-linejoin:round;}	.st2{fill:none;stroke:#000000;stroke-width:9.8131;stroke-linecap:round;stroke-linejoin:round;}</style><g>	<path class="st0 zHObWktK_0" d="M835.6,533.6V433.2c0-7.4,6-13.5,13.5-13.5h14c7.4,0,13.5-6,13.5-13.5c0-3.6-1.4-7-4-9.5l-89.4-89.4  c-5.2-5.3-13.8-5.3-19,0c0,0,0,0,0,0l-89.4,89.4c-5.3,5.3-5.2,13.8,0,19.1c2.5,2.5,5.9,3.9,9.5,3.9h14c7.4,0,13.5,6,13.5,13.5l0,0  v276h123.9V580.7"></path>	<path class="st0 zHObWktK_1" d="M996,165.9l-89.4,89.4c-5.3,5.3-5.3,13.8,0,19c2.5,2.5,6,4,9.5,4h14c7.4,0,13.5,6,13.5,13.4c0,0,0,0,0,0v417.4  h123.9V291.7c0-7.4,6-13.5,13.5-13.5c0,0,0,0,0,0h14c7.4,0,13.5-6,13.5-13.5c0-3.6-1.4-7-4-9.5l-89.4-89.4  C1009.7,160.6,1001.2,160.6,996,165.9z"></path>	<path class="st0 zHObWktK_2" d="M1175.4,301.4v407.7h123.9V169.6c0-7.4,6-13.5,13.5-13.5c0,0,0,0,0,0h14c7.4,0,13.5-6,13.5-13.5  c0-3.6-1.4-7-3.9-9.5l-89.4-89.4c-5.3-5.3-13.8-5.3-19,0l-89.4,89.4c-5.3,5.3-5.3,13.8,0,19c2.5,2.5,6,3.9,9.5,3.9h14  c7.4,0,13.5,6,13.5,13.5c0,0,0,0,0,0v84.8"></path>	<path class="st1 zHObWktK_3" d="M284.6,710.3h1438.1"></path>	<g>		<g id="g281">			<g id="g283">				<g id="g289">					<path id="path291" class="st2 zHObWktK_4" d="M352.4,560.9V704"></path>				</g>			</g>		</g>		<g id="g293">			<path id="path295" class="st2 zHObWktK_5" d="M352.4,621l29.6-29.6"></path>		</g>		<g id="g297">			<path id="path299" class="st2 zHObWktK_6" d="M352.4,594.7l-22.3-22.3"></path>		</g>		<g id="g301">			<g id="g303">				<g id="g309">					<path id="path311" class="st2 zHObWktK_7" d="M427.3,700.4V462.8"></path>				</g>			</g>		</g>		<g id="g313">			<path id="path315" class="st2 zHObWktK_8" d="M427.4,503.2l20.4-20.4"></path>		</g>		<g id="g317">			<path id="path319" class="st2 zHObWktK_9" d="M426.1,530.7l-24.3-24.3"></path>		</g>		<g id="g321">			<g id="g323">				<g id="g329">					<path id="path331" class="st2 zHObWktK_10" d="M547.2,562.9c6.5-24.9-8.5-50.2-33.3-56.7c-24.9-6.5-50.2,8.5-56.7,33.3      c-2.8,10.8-1.6,22.3,3.3,32.3c-23.5,5.8-37.8,29.6-32,53.1c5.8,23.5,29.6,37.8,53.1,32c6.1-1.5,11.8-4.3,16.7-8.2      c22.2,16.1,53.3,11.1,69.4-11.1c16.1-22.2,11.1-53.3-11.1-69.4C553.7,566.1,550.5,564.3,547.2,562.9L547.2,562.9z"></path>				</g>				<g id="g333">					<path id="path335" class="st2 zHObWktK_11" d="M498.3,579.3V704"></path>				</g>				<g id="g337">					<path id="path339" class="st2 zHObWktK_12" d="M498.3,607.2l25.8-25.8"></path>				</g>				<g id="g341">					<path id="path343" class="st2 zHObWktK_13" d="M498.3,630.5l-24.3-24.3"></path>				</g>				<g id="g349">					<path id="path351" class="st2 zHObWktK_14" d="M577.2,434.5c0,16.7-13.6,30.3-30.3,30.3c-16.7,0-30.3-13.6-30.3-30.3      c0-16.7,13.6-30.3,30.3-30.3C563.6,404.2,577.2,417.8,577.2,434.5C577.2,434.5,577.2,434.5,577.2,434.5z"></path>				</g>				<g id="g353">					<path id="path355" class="st2 zHObWktK_15" d="M282.4,605.1c14.9,38.7,58.4,57.9,97,43c25.7-9.9,43.9-33.1,47.4-60.4"></path>				</g>				<g id="g357">					<path id="path359" class="st2 zHObWktK_16" d="M374.7,506.6c-37.7-11.8-78.1,7.7-92.4,44.6"></path>				</g>				<g id="g361">					<path id="path363" class="st2 zHObWktK_17" d="M479.3,510.7c0.7-4.8,1-9.7,1-14.6c0-37.9-20.2-72.9-53-91.9c-50.8,29.3-68.1,94.2-38.8,145      c9.3,16.1,22.7,29.5,38.8,38.8c11.5-6.7,21.7-15.4,30-25.9"></path>				</g>				<g id="g365">					<path id="path367" class="st2 zHObWktK_18" d="M277.3,578.2L277.3,578.2"></path>				</g>			</g>		</g>	</g>	<g id="g2217">		<g id="g2219">			<g id="g2221">				<g id="g2227">					<path id="path2229" class="st2 zHObWktK_19" d="M1467.1,449.3c15.8-48.4,67.8-74.9,116.3-59.1c48.4,15.8,74.9,67.8,59.1,116.3      s-67.8,74.9-116.3,59.1c-27.8-9.1-49.7-30.8-58.9-58.6"></path>				</g>				<g id="g2231">					<path id="path2233" class="st2 zHObWktK_20" d="M1570.7,416.8l-57.2,73.1h33.2l-7.7,49l57.1-73.1H1563L1570.7,416.8z"></path>				</g>				<g id="g2235">					<path id="path2237" class="st2 zHObWktK_21" d="M1554.9,570.1v132.8"></path>				</g>				<g id="g2239">					<path id="path2241" class="st2 zHObWktK_22" d="M1554.9,653c57.9,20.4,108.6-8.8,119.8-69.1C1616.8,563.5,1566.1,592.7,1554.9,653z"></path>				</g>				<g id="g2243">					<path id="path2245" class="st2 zHObWktK_23" d="M1554.9,653c-57.9,20.4-108.6-8.8-119.8-69.1C1493,563.5,1543.6,592.7,1554.9,653z"></path>				</g>				<g id="g2247">					<path id="path2249" class="st2 zHObWktK_24" d="M1491.7,616.6l63.2,36.5"></path>				</g>				<g id="g2251">					<path id="path2253" class="st2 zHObWktK_25" d="M1618.1,616.6l-63.2,36.5"></path>				</g>				<g id="g2255">					<path id="path2257" class="st2 zHObWktK_26" d="M1432.7,477.8h-38.1"></path>				</g>				<g id="g2259">					<path id="path2261" class="st2 zHObWktK_27" d="M1432.7,526.7l-38.1,19.5"></path>				</g>				<g id="g2263">					<path id="path2265" class="st2 zHObWktK_28" d="M1432.7,429l-38.1-19.5"></path>				</g>				<g id="g2267">					<path id="path2269" class="st2 zHObWktK_29" d="M1677,477.8h38.2"></path>				</g>				<g id="g2271">					<path id="path2273" class="st2 zHObWktK_30" d="M1677,526.7l38.2,19.5"></path>				</g>				<g id="g2275">					<path id="path2277" class="st2 zHObWktK_31" d="M1677,429l38.2-19.5"></path>				</g>				<g id="g2279">					<path id="path2281" class="st2 zHObWktK_32" d="M1462.6,477.9L1462.6,477.9"></path>				</g>			</g>		</g>	</g></g><style data-made-with="vivus-instant">.zHObWktK_0{stroke-dasharray:1037 1039;stroke-dashoffset:1038;animation:zHObWktK_draw_0 7200ms linear 0ms infinite,zHObWktK_fade 7200ms linear 0ms infinite;}.zHObWktK_1{stroke-dasharray:1367 1369;stroke-dashoffset:1368;animation:zHObWktK_draw_1 7200ms linear 0ms infinite,zHObWktK_fade 7200ms linear 0ms infinite;}.zHObWktK_2{stroke-dasharray:1564 1566;stroke-dashoffset:1565;animation:zHObWktK_draw_2 7200ms linear 0ms infinite,zHObWktK_fade 7200ms linear 0ms infinite;}.zHObWktK_3{stroke-dasharray:1439 1441;stroke-dashoffset:1440;animation:zHObWktK_draw_3 7200ms linear 0ms infinite,zHObWktK_fade 7200ms linear 0ms infinite;}.zHObWktK_4{stroke-dasharray:144 146;stroke-dashoffset:145;animation:zHObWktK_draw_4 7200ms linear 0ms infinite,zHObWktK_fade 7200ms linear 0ms infinite;}.zHObWktK_5{stroke-dasharray:42 44;stroke-dashoffset:43;animation:zHObWktK_draw_5 7200ms linear 0ms infinite,zHObWktK_fade 7200ms linear 0ms infinite;}.zHObWktK_6{stroke-dasharray:32 34;stroke-dashoffset:33;animation:zHObWktK_draw_6 7200ms linear 0ms infinite,zHObWktK_fade 7200ms linear 0ms infinite;}.zHObWktK_7{stroke-dasharray:238 240;stroke-dashoffset:239;animation:zHObWktK_draw_7 7200ms linear 0ms infinite,zHObWktK_fade 7200ms linear 0ms infinite;}.zHObWktK_8{stroke-dasharray:29 31;stroke-dashoffset:30;animation:zHObWktK_draw_8 7200ms linear 0ms infinite,zHObWktK_fade 7200ms linear 0ms infinite;}.zHObWktK_9{stroke-dasharray:35 37;stroke-dashoffset:36;animation:zHObWktK_draw_9 7200ms linear 0ms infinite,zHObWktK_fade 7200ms linear 0ms infinite;}.zHObWktK_10{stroke-dasharray:503 505;stroke-dashoffset:504;animation:zHObWktK_draw_10 7200ms linear 0ms infinite,zHObWktK_fade 7200ms linear 0ms infinite;}.zHObWktK_11{stroke-dasharray:125 127;stroke-dashoffset:126;animation:zHObWktK_draw_11 7200ms linear 0ms infinite,zHObWktK_fade 7200ms linear 0ms infinite;}.zHObWktK_12{stroke-dasharray:37 39;stroke-dashoffset:38;animation:zHObWktK_draw_12 7200ms linear 0ms infinite,zHObWktK_fade 7200ms linear 0ms infinite;}.zHObWktK_13{stroke-dasharray:35 37;stroke-dashoffset:36;animation:zHObWktK_draw_13 7200ms linear 0ms infinite,zHObWktK_fade 7200ms linear 0ms infinite;}.zHObWktK_14{stroke-dasharray:191 193;stroke-dashoffset:192;animation:zHObWktK_draw_14 7200ms linear 0ms infinite,zHObWktK_fade 7200ms linear 0ms infinite;}.zHObWktK_15{stroke-dasharray:199 201;stroke-dashoffset:200;animation:zHObWktK_draw_15 7200ms linear 0ms infinite,zHObWktK_fade 7200ms linear 0ms infinite;}.zHObWktK_16{stroke-dasharray:113 115;stroke-dashoffset:114;animation:zHObWktK_draw_16 7200ms linear 0ms infinite,zHObWktK_fade 7200ms linear 0ms infinite;}.zHObWktK_17{stroke-dasharray:388 390;stroke-dashoffset:389;animation:zHObWktK_draw_17 7200ms linear 0ms infinite,zHObWktK_fade 7200ms linear 0ms infinite;}.zHObWktK_18{stroke-dasharray:0 2;stroke-dashoffset:1;animation:zHObWktK_draw_18 7200ms linear 0ms infinite,zHObWktK_fade 7200ms linear 0ms infinite;}.zHObWktK_19{stroke-dasharray:521 523;stroke-dashoffset:522;animation:zHObWktK_draw_19 7200ms linear 0ms infinite,zHObWktK_fade 7200ms linear 0ms infinite;}.zHObWktK_20{stroke-dasharray:352 354;stroke-dashoffset:353;animation:zHObWktK_draw_20 7200ms linear 0ms infinite,zHObWktK_fade 7200ms linear 0ms infinite;}.zHObWktK_21{stroke-dasharray:133 135;stroke-dashoffset:134;animation:zHObWktK_draw_21 7200ms linear 0ms infinite,zHObWktK_fade 7200ms linear 0ms infinite;}.zHObWktK_22{stroke-dasharray:320 322;stroke-dashoffset:321;animation:zHObWktK_draw_22 7200ms linear 0ms infinite,zHObWktK_fade 7200ms linear 0ms infinite;}.zHObWktK_23{stroke-dasharray:320 322;stroke-dashoffset:321;animation:zHObWktK_draw_23 7200ms linear 0ms infinite,zHObWktK_fade 7200ms linear 0ms infinite;}.zHObWktK_24{stroke-dasharray:73 75;stroke-dashoffset:74;animation:zHObWktK_draw_24 7200ms linear 0ms infinite,zHObWktK_fade 7200ms linear 0ms infinite;}.zHObWktK_25{stroke-dasharray:73 75;stroke-dashoffset:74;animation:zHObWktK_draw_25 7200ms linear 0ms infinite,zHObWktK_fade 7200ms linear 0ms infinite;}.zHObWktK_26{stroke-dasharray:39 41;stroke-dashoffset:40;animation:zHObWktK_draw_26 7200ms linear 0ms infinite,zHObWktK_fade 7200ms linear 0ms infinite;}.zHObWktK_27{stroke-dasharray:43 45;stroke-dashoffset:44;animation:zHObWktK_draw_27 7200ms linear 0ms infinite,zHObWktK_fade 7200ms linear 0ms infinite;}.zHObWktK_28{stroke-dasharray:43 45;stroke-dashoffset:44;animation:zHObWktK_draw_28 7200ms linear 0ms infinite,zHObWktK_fade 7200ms linear 0ms infinite;}.zHObWktK_29{stroke-dasharray:39 41;stroke-dashoffset:40;animation:zHObWktK_draw_29 7200ms linear 0ms infinite,zHObWktK_fade 7200ms linear 0ms infinite;}.zHObWktK_30{stroke-dasharray:43 45;stroke-dashoffset:44;animation:zHObWktK_draw_30 7200ms linear 0ms infinite,zHObWktK_fade 7200ms linear 0ms infinite;}.zHObWktK_31{stroke-dasharray:43 45;stroke-dashoffset:44;animation:zHObWktK_draw_31 7200ms linear 0ms infinite,zHObWktK_fade 7200ms linear 0ms infinite;}.zHObWktK_32{stroke-dasharray:0 2;stroke-dashoffset:1;animation:zHObWktK_draw_32 7200ms linear 0ms infinite,zHObWktK_fade 7200ms linear 0ms infinite;}@keyframes zHObWktK_draw{100%{stroke-dashoffset:0;}}@keyframes zHObWktK_fade{0%{stroke-opacity:1;}94.44444444444444%{stroke-opacity:1;}100%{stroke-opacity:0;}}@keyframes zHObWktK_draw_0{11.11111111111111%{stroke-dashoffset: 1038}38.88888888888889%{ stroke-dashoffset: 0;}100%{ stroke-dashoffset: 0;}}@keyframes zHObWktK_draw_1{11.54513888888889%{stroke-dashoffset: 1368}39.32291666666667%{ stroke-dashoffset: 0;}100%{ stroke-dashoffset: 0;}}@keyframes zHObWktK_draw_2{11.979166666666668%{stroke-dashoffset: 1565}39.75694444444444%{ stroke-dashoffset: 0;}100%{ stroke-dashoffset: 0;}}@keyframes zHObWktK_draw_3{12.413194444444445%{stroke-dashoffset: 1440}40.19097222222222%{ stroke-dashoffset: 0;}100%{ stroke-dashoffset: 0;}}@keyframes zHObWktK_draw_4{12.847222222222221%{stroke-dashoffset: 145}40.625%{ stroke-dashoffset: 0;}100%{ stroke-dashoffset: 0;}}@keyframes zHObWktK_draw_5{13.28125%{stroke-dashoffset: 43}41.05902777777778%{ stroke-dashoffset: 0;}100%{ stroke-dashoffset: 0;}}@keyframes zHObWktK_draw_6{13.715277777777779%{stroke-dashoffset: 33}41.49305555555556%{ stroke-dashoffset: 0;}100%{ stroke-dashoffset: 0;}}@keyframes zHObWktK_draw_7{14.149305555555555%{stroke-dashoffset: 239}41.92708333333333%{ stroke-dashoffset: 0;}100%{ stroke-dashoffset: 0;}}@keyframes zHObWktK_draw_8{14.583333333333334%{stroke-dashoffset: 30}42.36111111111111%{ stroke-dashoffset: 0;}100%{ stroke-dashoffset: 0;}}@keyframes zHObWktK_draw_9{15.01736111111111%{stroke-dashoffset: 36}42.79513888888889%{ stroke-dashoffset: 0;}100%{ stroke-dashoffset: 0;}}@keyframes zHObWktK_draw_10{15.45138888888889%{stroke-dashoffset: 504}43.22916666666667%{ stroke-dashoffset: 0;}100%{ stroke-dashoffset: 0;}}@keyframes zHObWktK_draw_11{15.885416666666666%{stroke-dashoffset: 126}43.66319444444444%{ stroke-dashoffset: 0;}100%{ stroke-dashoffset: 0;}}@keyframes zHObWktK_draw_12{16.319444444444446%{stroke-dashoffset: 38}44.09722222222222%{ stroke-dashoffset: 0;}100%{ stroke-dashoffset: 0;}}@keyframes zHObWktK_draw_13{16.75347222222222%{stroke-dashoffset: 36}44.53125%{ stroke-dashoffset: 0;}100%{ stroke-dashoffset: 0;}}@keyframes zHObWktK_draw_14{17.1875%{stroke-dashoffset: 192}44.96527777777778%{ stroke-dashoffset: 0;}100%{ stroke-dashoffset: 0;}}@keyframes zHObWktK_draw_15{17.62152777777778%{stroke-dashoffset: 200}45.39930555555556%{ stroke-dashoffset: 0;}100%{ stroke-dashoffset: 0;}}@keyframes zHObWktK_draw_16{18.055555555555554%{stroke-dashoffset: 114}45.83333333333333%{ stroke-dashoffset: 0;}100%{ stroke-dashoffset: 0;}}@keyframes zHObWktK_draw_17{18.489583333333336%{stroke-dashoffset: 389}46.26736111111111%{ stroke-dashoffset: 0;}100%{ stroke-dashoffset: 0;}}@keyframes zHObWktK_draw_18{18.92361111111111%{stroke-dashoffset: 1}46.70138888888889%{ stroke-dashoffset: 0;}100%{ stroke-dashoffset: 0;}}@keyframes zHObWktK_draw_19{19.35763888888889%{stroke-dashoffset: 522}47.13541666666667%{ stroke-dashoffset: 0;}100%{ stroke-dashoffset: 0;}}@keyframes zHObWktK_draw_20{19.791666666666664%{stroke-dashoffset: 353}47.56944444444444%{ stroke-dashoffset: 0;}100%{ stroke-dashoffset: 0;}}@keyframes zHObWktK_draw_21{20.225694444444446%{stroke-dashoffset: 134}48.00347222222222%{ stroke-dashoffset: 0;}100%{ stroke-dashoffset: 0;}}@keyframes zHObWktK_draw_22{20.65972222222222%{stroke-dashoffset: 321}48.4375%{ stroke-dashoffset: 0;}100%{ stroke-dashoffset: 0;}}@keyframes zHObWktK_draw_23{21.09375%{stroke-dashoffset: 321}48.87152777777778%{ stroke-dashoffset: 0;}100%{ stroke-dashoffset: 0;}}@keyframes zHObWktK_draw_24{21.52777777777778%{stroke-dashoffset: 74}49.30555555555556%{ stroke-dashoffset: 0;}100%{ stroke-dashoffset: 0;}}@keyframes zHObWktK_draw_25{21.961805555555554%{stroke-dashoffset: 74}49.73958333333333%{ stroke-dashoffset: 0;}100%{ stroke-dashoffset: 0;}}@keyframes zHObWktK_draw_26{22.395833333333336%{stroke-dashoffset: 40}50.173611111111114%{ stroke-dashoffset: 0;}100%{ stroke-dashoffset: 0;}}@keyframes zHObWktK_draw_27{22.82986111111111%{stroke-dashoffset: 44}50.607638888888886%{ stroke-dashoffset: 0;}100%{ stroke-dashoffset: 0;}}@keyframes zHObWktK_draw_28{23.26388888888889%{stroke-dashoffset: 44}51.041666666666664%{ stroke-dashoffset: 0;}100%{ stroke-dashoffset: 0;}}@keyframes zHObWktK_draw_29{23.697916666666664%{stroke-dashoffset: 40}51.47569444444444%{ stroke-dashoffset: 0;}100%{ stroke-dashoffset: 0;}}@keyframes zHObWktK_draw_30{24.131944444444446%{stroke-dashoffset: 44}51.90972222222222%{ stroke-dashoffset: 0;}100%{ stroke-dashoffset: 0;}}@keyframes zHObWktK_draw_31{24.56597222222222%{stroke-dashoffset: 44}52.34375%{ stroke-dashoffset: 0;}100%{ stroke-dashoffset: 0;}}@keyframes zHObWktK_draw_32{25%{stroke-dashoffset: 1}52.77777777777778%{ stroke-dashoffset: 0;}100%{ stroke-dashoffset: 0;}}</style></svg>